<svg viewBox="0 0 748 621" xmlns="http://www.w3.org/2000/svg" xmlns:xlink="http://www.w3.org/1999/xlink"><defs><filter x="-4.5%" y="-6.3%" width="109%" height="117.7%" filterUnits="objectBoundingBox" id="a"><feOffset dy="2" in="SourceAlpha" result="shadowOffsetOuter1"/><feGaussianBlur stdDeviation="2" in="shadowOffsetOuter1" result="shadowBlurOuter1"/><feComposite in="shadowBlurOuter1" in2="SourceAlpha" operator="out" result="shadowBlurOuter1"/><feColorMatrix values="0 0 0 0 0 0 0 0 0 0 0 0 0 0 0 0 0 0 0.111696897 0" in="shadowBlurOuter1"/></filter><filter x="-3.2%" y="-4.2%" width="108.6%" height="116.8%" filterUnits="objectBoundingBox" id="c"><feOffset dx="2" dy="4" in="SourceAlpha" result="shadowOffsetOuter1"/><feGaussianBlur stdDeviation="2" in="shadowOffsetOuter1" result="shadowBlurOuter1"/><feComposite in="shadowBlurOuter1" in2="SourceAlpha" operator="out" result="shadowBlurOuter1"/><feColorMatrix values="0 0 0 0 0 0 0 0 0 0 0 0 0 0 0 0 0 0 0.113363199 0" in="shadowBlurOuter1"/></filter><filter x="-4.5%" y="-6.3%" width="109%" height="117.7%" filterUnits="objectBoundingBox" id="e"><feOffset dy="2" in="SourceAlpha" result="shadowOffsetOuter1"/><feGaussianBlur stdDeviation="2" in="shadowOffsetOuter1" result="shadowBlurOuter1"/><feComposite in="shadowBlurOuter1" in2="SourceAlpha" operator="out" result="shadowBlurOuter1"/><feColorMatrix values="0 0 0 0 0 0 0 0 0 0 0 0 0 0 0 0 0 0 0.112844187 0" in="shadowBlurOuter1"/></filter><filter x="-2.1%" y="-4.9%" width="104.1%" height="113.6%" filterUnits="objectBoundingBox" id="g"><feOffset dy="2" in="SourceAlpha" result="shadowOffsetOuter1"/><feGaussianBlur stdDeviation="2" in="shadowOffsetOuter1" result="shadowBlurOuter1"/><feComposite in="shadowBlurOuter1" in2="SourceAlpha" operator="out" result="shadowBlurOuter1"/><feColorMatrix values="0 0 0 0 0 0 0 0 0 0 0 0 0 0 0 0 0 0 0.107790647 0" in="shadowBlurOuter1"/></filter><filter x="-4.7%" y="-1.9%" width="109.3%" height="105.2%" filterUnits="objectBoundingBox" id="i"><feOffset dy="2" in="SourceAlpha" result="shadowOffsetOuter1"/><feGaussianBlur stdDeviation="2" in="shadowOffsetOuter1" result="shadowBlurOuter1"/><feComposite in="shadowBlurOuter1" in2="SourceAlpha" operator="out" result="shadowBlurOuter1"/><feColorMatrix values="0 0 0 0 0 0 0 0 0 0 0 0 0 0 0 0 0 0 0.113854895 0" in="shadowBlurOuter1"/></filter><filter x="-4.7%" y="-1.9%" width="109.3%" height="105.2%" filterUnits="objectBoundingBox" id="k"><feOffset dy="2" in="SourceAlpha" result="shadowOffsetOuter1"/><feGaussianBlur stdDeviation="2" in="shadowOffsetOuter1" result="shadowBlurOuter1"/><feComposite in="shadowBlurOuter1" in2="SourceAlpha" operator="out" result="shadowBlurOuter1"/><feColorMatrix values="0 0 0 0 0 0 0 0 0 0 0 0 0 0 0 0 0 0 0.110303759 0" in="shadowBlurOuter1"/></filter><filter x="-1.6%" y="-1.7%" width="103.2%" height="106.6%" filterUnits="objectBoundingBox" id="m"><feOffset dy="10" in="SourceAlpha" result="shadowOffsetOuter1"/><feColorMatrix values="0 0 0 0 0 0 0 0 0 0 0 0 0 0 0 0 0 0 0.202769886 0" in="shadowOffsetOuter1"/></filter><ellipse id="b" cx="77.5" cy="39.5" rx="77.5" ry="39.5"/><ellipse id="d" cx="93.196" cy="47.5" rx="93.196" ry="47.5"/><ellipse id="f" cx="94.5" cy="39.5" rx="77.5" ry="39.5"/><rect id="h" x="204" y="501" width="341" height="103" rx="8"/><rect id="j" x="23" y="184" width="150" height="267" rx="8"/><rect id="l" x="0" y="0" width="150" height="267" rx="8"/><path d="M170 302c34.498 0 61.806-10.805 84.363-26 6.92-4.661 13.168-9.457 19.533-14.445 4.045-3.17 7.283-6.555 11.091-10.982 3.809-4.428 23.452-24.642 19.513-33.327-5.406-11.916-46.763-19.994-43.945-27.379 1.131-2.967 53.629 2.132 54.574-.867.685-2.171 2.153-10.528 6.619-12.272 5.334-2.082 13.774 2.457 14.252-.228 1.542-8.654-14.252-25.403-14.252-34.5C321.748 58.605 253.395 0 170 0S19 67.605 19 151s67.605 151 151 151Z" id="n"/></defs><g fill="none" fill-rule="evenodd"><path d="M0 620.681h748L374 380z" fill="#1D741D" opacity=".045"/><g transform="translate(119 60)"><use fill="#000" filter="url(#a)" xlink:href="#b"/><ellipse stroke="#FFF" stroke-width="2" stroke-linejoin="square" fill="#E2EFE3" cx="77.5" cy="39.5" rx="76.5" ry="38.5"/><ellipse fill="#1D741D" opacity=".107" cx="119.494" cy="105" rx="25.506" ry="13"/><ellipse fill="#1D741D" opacity=".107" cx="152.646" cy="140" rx="17.658" ry="9"/><text font-family="DMSans-Bold, DM Sans" font-size="21" font-weight="bold" letter-spacing=".263" fill="#000">
                        <tspan x="71.592" y="35">7</tspan>
                        
                        <tspan x="37" y="59" font-family="DMSans-Regular, DM Sans" font-size="18" font-weight="normal" letter-spacing=".225">Platforms</tspan>
                    </text></g><g transform="translate(279.076 61)"><use fill="#000" filter="url(#c)" xlink:href="#d"/><ellipse stroke="#FFF" stroke-width="2" stroke-linejoin="square" fill-opacity=".2" fill="#F70000" cx="93.196" cy="47.5" rx="92.196" ry="46.5"/><ellipse fill="#1D741D" opacity=".107" cx="74.418" cy="116" rx="25.506" ry="13"/><text font-family="DMSans-Bold, DM Sans" font-size="21" font-weight="bold" letter-spacing=".263" fill="#000">
                        <tspan x="83.573" y="37">17</tspan>
                        
                        <tspan x="64.322" y="57.475" font-family="DMSans-Regular, DM Sans" font-size="18" font-weight="normal" letter-spacing=".225">Design</tspan>
                        <tspan x="48" y="77.475" font-family="DMSans-Regular, DM Sans" font-size="18" font-weight="normal" letter-spacing=".225">Languages</tspan>
                    </text></g><g transform="translate(453.987 61)"><use fill="#000" filter="url(#e)" xlink:href="#f"/><ellipse stroke="#FFF" stroke-width="2" stroke-linejoin="square" fill="#E2EFE3" cx="94.5" cy="39.5" rx="76.5" ry="38.5"/><ellipse fill="#1D741D" opacity=".107" cx="60.506" cy="104" rx="25.506" ry="13"/><ellipse fill="#1D741D" opacity=".107" cx="17.658" cy="139" rx="17.658" ry="9"/><text font-family="DMSans-Bold, DM Sans" font-size="21" font-weight="bold" letter-spacing=".263" fill="#000">
                        <tspan x="67.974" y="40">350</tspan>
                        <tspan x="109.102" y="40.168" font-family="DMSans-Regular, DM Sans" font-weight="normal">+</tspan>
                        <tspan x="44.5" y="59" font-family="DMSans-Regular, DM Sans" font-size="18" font-weight="normal" letter-spacing=".225">Capabilities</tspan>
                    </text></g><g transform="translate(0 .25)"><use fill="#000" filter="url(#g)" xlink:href="#h"/><rect stroke="#FFF" stroke-width="2" stroke-linejoin="square" fill="#E2EFE3" x="205" y="502" width="339" height="101" rx="8"/></g><g transform="translate(0 .25)"><use fill="#000" filter="url(#i)" xlink:href="#j"/><rect stroke="#FFF" stroke-width="2" stroke-linejoin="square" fill="#E2EFE3" x="24" y="185" width="148" height="265" rx="8"/></g><g fill="#000" font-family="DMSans-Bold, DM Sans" font-size="21" font-weight="bold" letter-spacing=".263"><text transform="translate(236 522.25)">
                        <tspan x="31.735" y="21">One</tspan>
                        
                        <tspan x="35.339" y="44.475" font-family="DMSans-Regular, DM Sans" font-size="18" font-weight="normal" letter-spacing=".225">MFE</tspan>
                        <tspan x="0" y="64.475" font-family="DMSans-Regular, DM Sans" font-size="18" font-weight="normal" letter-spacing=".225">Architecture</tspan>
                    </text><text transform="translate(236 522.25)">
                        <tspan x="186.661" y="21">Defined</tspan>
                        
                        <tspan x="178.5" y="44.475" font-family="DMSans-Regular, DM Sans" font-size="18" font-weight="normal" letter-spacing=".225">Application</tspan>
                        <tspan x="180.763" y="64.475" font-family="DMSans-Regular, DM Sans" font-size="18" font-weight="normal" letter-spacing=".225">Architypes</tspan>
                    </text></g><g fill="#000" font-family="DMSans-Bold, DM Sans" font-size="20" font-weight="bold" letter-spacing=".25"><text transform="translate(35 207.25)">
                        <tspan x="42.779" y="108.75">One</tspan>
                        
                        <tspan x="14.5" y="131.25" font-family="DMSans-Regular, DM Sans" font-size="18" font-weight="normal" letter-spacing=".225">Application</tspan>
                        <tspan x="30.682" y="151.25" font-family="DMSans-Regular, DM Sans" font-size="18" font-weight="normal" letter-spacing=".225">Catalog</tspan>
                    </text><text transform="translate(35 207.25)">
                        <tspan x="27.273" y="20">Analize</tspan>
                        
                        <tspan x="5" y="42.5" font-family="DMSans-Regular, DM Sans" font-size="18" font-weight="normal" letter-spacing=".225">Measure, Test</tspan>
                        <tspan x="17.762" y="62.5" font-family="DMSans-Regular, DM Sans" font-size="18" font-weight="normal" letter-spacing=".225">& Promote</tspan>
                    </text><text transform="translate(35 207.25)">
                        <tspan x="0" y="197.75">Author Once</tspan>
                        
                        <tspan x=".938" y="220.25" font-family="DMSans-Regular, DM Sans" font-size="18" font-weight="normal" letter-spacing=".225">Multiple Builds</tspan>
                    </text></g><g transform="translate(573 214)"><use fill="#000" filter="url(#k)" xlink:href="#l"/><rect stroke="#FFF" stroke-width="2" stroke-linejoin="square" fill="#E2EFE3" x="1" y="1" width="148" height="265" rx="8"/></g><g fill="#000" font-family="DMSans-Bold, DM Sans" font-size="21" font-weight="bold" letter-spacing=".263"><text transform="translate(589 238)">
                            <tspan x="40.076" y="21">E2E</tspan>
                            
                            <tspan x="2.5" y="44.475" font-family="DMSans-Regular, DM Sans" font-size="18" font-weight="normal" letter-spacing=".225">Supply Chain</tspan>
                            <tspan x="21.837" y="64.475" font-family="DMSans-Regular, DM Sans" font-size="18" font-weight="normal" letter-spacing=".225">Mapping</tspan>
                        </text><text transform="translate(589 238)">
                            <tspan x="31.807" y="120">1000’s</tspan>
                            
                            <tspan x="0" y="143.475" font-family="DMSans-Regular, DM Sans" font-size="18" font-weight="normal" letter-spacing=".225">of Developers</tspan>
                        </text><text transform="translate(589 238)">
                            <tspan x="9" y="199">Cycle out</tspan>
                            
                            <tspan x="15.419" y="222.475" font-family="DMSans-Regular, DM Sans" font-size="18" font-weight="normal" letter-spacing=".225">Tech Debt</tspan>
                        </text></g><path d="M648.196 197.437V117.72a8.895 8.895 0 0 0-9.45-8.878" stroke="#1D741D" stroke-width="4" stroke-dasharray="10"/><path fill="#1D741D" d="m647.606 209.25-8.86-14.766h17.719z"/><path d="M559.918 554.34h79.719a8.895 8.895 0 0 0 8.878-9.45" stroke="#1D741D" stroke-width="4" stroke-dasharray="10"/><path fill="#1D741D" d="m548.105 553.75 14.766-8.86v17.72z"/><path d="M103.015 467.063v79.718a8.895 8.895 0 0 0 9.45 8.878" stroke="#1D741D" stroke-width="4" stroke-dasharray="10"/><path fill="#1D741D" d="m103.605 455.25 8.86 14.766H94.746z"/><g transform="translate(204 184)"><use fill="#000" filter="url(#m)" xlink:href="#n"/><use fill="#FFF" xlink:href="#n"/><path d="M170.874 0c79.66 0 144.9 61.788 150.486 140.09L341 176.728l-21.434.002a150.207 150.207 0 0 1-2.864 13.138h-56.147l45.833 27.588C281.827 267.53 230.372 302 170.874 302 87.548 302 20 234.395 20 151S87.548 0 170.874 0Z" stroke="#ACACAC" stroke-width="4"/><ellipse fill="#ACACAC" cx="300.5" cy="118" rx="4.5" ry="12"/><g transform="translate(0 120)"><ellipse fill="#FFF" cx="22" cy="30.5" rx="22" ry="30.5"/><path d="M29.195 1.669C26.941.587 24.52 0 22 0 9.85 0 0 13.655 0 30.5S9.85 61 22 61c1.847 0 3.64-.316 5.355-.91" stroke="#ACACAC" stroke-width="4"/><path d="M22.298 15.015c-6.169 0-11.17 6.933-11.17 15.485s5.001 15.485 11.17 15.485" stroke="#ACACAC" stroke-width="4"/></g></g><path d="M493 282.767C493 298.345 481.627 311 467.625 311h-181.25C272.373 311 261 298.345 261 282.767c0-14.57 9.923-26.57 22.702-28.082-.635-2.622-.952-5.395-.952-8.218 0-17.797 13.005-32.267 29-32.267 3.353 0 6.616.655 9.606 1.815C326.522 200.789 339.753 190 355.25 190c14.455 0 26.96 9.428 32.76 23.09 4.94-4.385 11.193-6.957 17.99-6.957 13.91 0 25.51 10.89 28.366 25.41 2.492-.806 5.165-1.21 7.884-1.21 13.548 0 24.967 10.386 28.14 24.352 12.687 1.512 22.61 13.511 22.61 28.082Z" fill="#E2EFE3" fill-rule="nonzero"/><path d="M267.292 249.16h-79.718a8.895 8.895 0 0 0-8.878 9.45" stroke="#1D741D" stroke-width="4" stroke-dasharray="10"/><path fill="#1D741D" d="m279.105 249.75-14.766 8.86v-17.72z"/><text font-family="DMSans-Bold, DM Sans" font-size="21" font-weight="bold" letter-spacing=".263" fill="#000" transform="translate(0 .25)">
                    <tspan x="310.06" y="235.275">Consolidate</tspan>
                    
                    <tspan x="290.548" y="258.75" font-family="DMSans-Regular, DM Sans" font-size="18" font-weight="normal" letter-spacing=".225">Everything into one </tspan>
                    <tspan x="329.081" y="278.75" font-family="DMSans-Regular, DM Sans" font-size="18" font-weight="normal" letter-spacing=".225">Enterprise </tspan>
                    <tspan x="310.087" y="298.75" font-family="DMSans-Regular, DM Sans" font-size="18" font-weight="normal" letter-spacing=".225">Design System</tspan>
                </text></g></svg>